<mxfile host="Electron" modified="2023-11-05T08:28:21.102Z" agent="Mozilla/5.0 (Windows NT 10.0; Win64; x64) AppleWebKit/537.36 (KHTML, like Gecko) draw.io/21.7.5 Chrome/114.0.5735.289 Electron/25.8.1 Safari/537.36" etag="-f7FO87-_4t8ymei2Imz" version="21.7.5" type="device">
  <diagram id="_5H-L2p9wcAScAushxqT" name="Trang-1">
    <mxGraphModel dx="13" dy="505" grid="1" gridSize="10" guides="1" tooltips="1" connect="1" arrows="1" fold="1" page="1" pageScale="1" pageWidth="850" pageHeight="1100" math="0" shadow="0">
      <root>
        <mxCell id="0" />
        <mxCell id="1" parent="0" />
        <mxCell id="MCsUvH6jt3mRJvjkBpip-10" style="edgeStyle=orthogonalEdgeStyle;rounded=0;orthogonalLoop=1;jettySize=auto;html=1;entryX=0;entryY=0.5;entryDx=0;entryDy=0;" parent="1" target="MCsUvH6jt3mRJvjkBpip-13" edge="1">
          <mxGeometry relative="1" as="geometry">
            <mxPoint x="1420" y="672.5" as="targetPoint" />
            <Array as="points">
              <mxPoint x="1350" y="672.5" />
              <mxPoint x="1350" y="672.5" />
            </Array>
            <mxPoint x="1339.9999999999998" y="672.5294117647061" as="sourcePoint" />
          </mxGeometry>
        </mxCell>
        <mxCell id="MCsUvH6jt3mRJvjkBpip-13" value="Post Login" style="rounded=0;whiteSpace=wrap;html=1;" parent="1" vertex="1">
          <mxGeometry x="1480" y="642.5" width="120" height="60" as="geometry" />
        </mxCell>
        <mxCell id="MCsUvH6jt3mRJvjkBpip-18" value="" style="rounded=0;whiteSpace=wrap;html=1;" parent="1" vertex="1">
          <mxGeometry x="1480" y="360" width="120" height="212.5" as="geometry" />
        </mxCell>
        <mxCell id="MCsUvH6jt3mRJvjkBpip-19" value="Inventory manager&lt;br&gt;&amp;nbsp;profile" style="text;html=1;strokeColor=none;fillColor=none;align=center;verticalAlign=middle;whiteSpace=wrap;rounded=0;" parent="1" vertex="1">
          <mxGeometry x="1496.25" y="375" width="90" height="30" as="geometry" />
        </mxCell>
        <mxCell id="MCsUvH6jt3mRJvjkBpip-22" value="Account" style="rounded=0;whiteSpace=wrap;html=1;" parent="1" vertex="1">
          <mxGeometry x="1495" y="420" width="95" height="40" as="geometry" />
        </mxCell>
        <mxCell id="MCsUvH6jt3mRJvjkBpip-23" value="" style="endArrow=classic;html=1;rounded=0;exitX=0.5;exitY=0;exitDx=0;exitDy=0;entryX=0.5;entryY=1;entryDx=0;entryDy=0;" parent="1" source="MCsUvH6jt3mRJvjkBpip-13" target="MCsUvH6jt3mRJvjkBpip-18" edge="1">
          <mxGeometry width="50" height="50" relative="1" as="geometry">
            <mxPoint x="1460" y="532.5" as="sourcePoint" />
            <mxPoint x="1510" y="482.5" as="targetPoint" />
          </mxGeometry>
        </mxCell>
        <mxCell id="MCsUvH6jt3mRJvjkBpip-24" value="" style="endArrow=classic;html=1;rounded=0;entryX=1;entryY=0.5;entryDx=0;entryDy=0;exitX=0;exitY=0.5;exitDx=0;exitDy=0;" parent="1" source="MCsUvH6jt3mRJvjkBpip-22" edge="1">
          <mxGeometry width="50" height="50" relative="1" as="geometry">
            <mxPoint x="1400" y="422.5" as="sourcePoint" />
            <mxPoint x="1339.9999999999998" y="440" as="targetPoint" />
          </mxGeometry>
        </mxCell>
        <mxCell id="MCsUvH6jt3mRJvjkBpip-38" value="Logout" style="rounded=0;whiteSpace=wrap;html=1;" parent="1" vertex="1">
          <mxGeometry x="1495" y="522.5" width="95" height="30" as="geometry" />
        </mxCell>
        <mxCell id="MCsUvH6jt3mRJvjkBpip-46" value="Management" style="rounded=0;whiteSpace=wrap;html=1;" parent="1" vertex="1">
          <mxGeometry x="1495" y="472.5" width="92.5" height="40" as="geometry" />
        </mxCell>
        <mxCell id="MCsUvH6jt3mRJvjkBpip-68" value="Click &quot;Update&quot; button" style="text;html=1;strokeColor=none;fillColor=none;align=center;verticalAlign=middle;whiteSpace=wrap;rounded=0;rotation=0;" parent="1" vertex="1">
          <mxGeometry x="1340" y="410" width="140" height="30" as="geometry" />
        </mxCell>
        <mxCell id="MCsUvH6jt3mRJvjkBpip-71" value="Login success" style="text;html=1;strokeColor=none;fillColor=none;align=center;verticalAlign=middle;whiteSpace=wrap;rounded=0;" parent="1" vertex="1">
          <mxGeometry x="1370" y="642.5" width="80" height="30" as="geometry" />
        </mxCell>
        <mxCell id="MCsUvH6jt3mRJvjkBpip-72" value="Click &quot;user&quot; icon" style="text;html=1;strokeColor=none;fillColor=none;align=center;verticalAlign=middle;whiteSpace=wrap;rounded=0;" parent="1" vertex="1">
          <mxGeometry x="1450" y="597.5" width="90" height="30" as="geometry" />
        </mxCell>
        <mxCell id="2rabA6hV7v8YyWNnom4N-6" style="edgeStyle=orthogonalEdgeStyle;rounded=0;orthogonalLoop=1;jettySize=auto;html=1;entryX=0;entryY=0.5;entryDx=0;entryDy=0;exitX=1;exitY=0.25;exitDx=0;exitDy=0;" parent="1" source="MCsUvH6jt3mRJvjkBpip-112" target="MCsUvH6jt3mRJvjkBpip-113" edge="1">
          <mxGeometry relative="1" as="geometry">
            <mxPoint x="2000.0000000000002" y="492.5" as="targetPoint" />
            <Array as="points">
              <mxPoint x="1910" y="470" />
              <mxPoint x="2040" y="470" />
              <mxPoint x="2040" y="410" />
            </Array>
          </mxGeometry>
        </mxCell>
        <mxCell id="dYhZ1xurs8YsVmNAA7L5-31" value="click &quot;nhập hàng&quot; link&amp;nbsp;" style="edgeLabel;html=1;align=center;verticalAlign=middle;resizable=0;points=[];" vertex="1" connectable="0" parent="2rabA6hV7v8YyWNnom4N-6">
          <mxGeometry x="-0.2019" y="1" relative="1" as="geometry">
            <mxPoint x="-11" y="-3" as="offset" />
          </mxGeometry>
        </mxCell>
        <mxCell id="MCsUvH6jt3mRJvjkBpip-112" value="Import Product List" style="rounded=0;whiteSpace=wrap;html=1;" parent="1" vertex="1">
          <mxGeometry x="1790" y="450" width="120" height="90" as="geometry" />
        </mxCell>
        <mxCell id="MCsUvH6jt3mRJvjkBpip-113" value="Import Product" style="rounded=0;whiteSpace=wrap;html=1;" parent="1" vertex="1">
          <mxGeometry x="2080" y="380" width="120" height="60" as="geometry" />
        </mxCell>
        <mxCell id="MCsUvH6jt3mRJvjkBpip-119" value="" style="endArrow=classic;html=1;rounded=0;exitX=0.999;exitY=0.423;exitDx=0;exitDy=0;exitPerimeter=0;" parent="1" source="MCsUvH6jt3mRJvjkBpip-46" edge="1">
          <mxGeometry width="50" height="50" relative="1" as="geometry">
            <mxPoint x="1590" y="490" as="sourcePoint" />
            <mxPoint x="1790" y="490" as="targetPoint" />
            <Array as="points" />
          </mxGeometry>
        </mxCell>
        <mxCell id="MCsUvH6jt3mRJvjkBpip-122" value="Select import product list" style="text;html=1;strokeColor=none;fillColor=none;align=center;verticalAlign=middle;whiteSpace=wrap;rounded=0;" parent="1" vertex="1">
          <mxGeometry x="1620" y="460" width="150" height="30" as="geometry" />
        </mxCell>
        <mxCell id="MCsUvH6jt3mRJvjkBpip-146" value="" style="rounded=0;whiteSpace=wrap;html=1;dashed=1;" parent="1" vertex="1">
          <mxGeometry x="1970" y="657.5" width="140" height="260" as="geometry" />
        </mxCell>
        <mxCell id="MCsUvH6jt3mRJvjkBpip-147" value="Guest" style="rounded=0;whiteSpace=wrap;html=1;dashed=1;strokeWidth=0;fillColor=#dae8fc;strokeColor=#6c8ebf;" parent="1" vertex="1">
          <mxGeometry x="2000" y="797.5" width="80" height="45" as="geometry" />
        </mxCell>
        <mxCell id="MCsUvH6jt3mRJvjkBpip-148" value="Inventory manager" style="rounded=0;whiteSpace=wrap;html=1;dashed=1;strokeWidth=0;" parent="1" vertex="1">
          <mxGeometry x="2000" y="857.5" width="80" height="42.5" as="geometry" />
        </mxCell>
        <mxCell id="MCsUvH6jt3mRJvjkBpip-149" value="Flat page" style="rounded=0;whiteSpace=wrap;html=1;strokeWidth=1;perimeterSpacing=1;" parent="1" vertex="1">
          <mxGeometry x="2000" y="677.5" width="80" height="40" as="geometry" />
        </mxCell>
        <mxCell id="MCsUvH6jt3mRJvjkBpip-150" value="Start page" style="rounded=0;whiteSpace=wrap;html=1;dashed=1;strokeWidth=0;fillColor=#FFFFB3;strokeColor=#FFFFB3;" parent="1" vertex="1">
          <mxGeometry x="2000" y="735" width="80" height="45" as="geometry" />
        </mxCell>
        <mxCell id="2rabA6hV7v8YyWNnom4N-7" value="click &quot;Import Cart&quot; link" style="edgeStyle=orthogonalEdgeStyle;rounded=0;orthogonalLoop=1;jettySize=auto;html=1;entryX=-0.001;entryY=0.382;entryDx=0;entryDy=0;exitX=1;exitY=0.25;exitDx=0;exitDy=0;entryPerimeter=0;" parent="1" target="2rabA6hV7v8YyWNnom4N-8" edge="1">
          <mxGeometry relative="1" as="geometry">
            <mxPoint x="2000.0000000000002" y="512.5" as="targetPoint" />
            <mxPoint x="1910" y="498.125" as="sourcePoint" />
            <Array as="points">
              <mxPoint x="1910" y="530" />
              <mxPoint x="2040" y="530" />
              <mxPoint x="2040" y="560" />
              <mxPoint x="2080" y="560" />
            </Array>
          </mxGeometry>
        </mxCell>
        <mxCell id="2rabA6hV7v8YyWNnom4N-8" value="Import Cart" style="rounded=0;whiteSpace=wrap;html=1;" parent="1" vertex="1">
          <mxGeometry x="2080" y="537.5" width="120" height="60" as="geometry" />
        </mxCell>
        <mxCell id="dYhZ1xurs8YsVmNAA7L5-1" style="edgeStyle=orthogonalEdgeStyle;rounded=0;orthogonalLoop=1;jettySize=auto;html=1;entryX=0.5;entryY=0;entryDx=0;entryDy=0;" edge="1" parent="1" source="dYhZ1xurs8YsVmNAA7L5-5" target="dYhZ1xurs8YsVmNAA7L5-7">
          <mxGeometry relative="1" as="geometry" />
        </mxCell>
        <mxCell id="dYhZ1xurs8YsVmNAA7L5-2" style="edgeStyle=orthogonalEdgeStyle;rounded=0;orthogonalLoop=1;jettySize=auto;html=1;entryX=0;entryY=0.5;entryDx=0;entryDy=0;" edge="1" parent="1" source="dYhZ1xurs8YsVmNAA7L5-5" target="dYhZ1xurs8YsVmNAA7L5-9">
          <mxGeometry relative="1" as="geometry">
            <mxPoint x="990" y="902.5" as="targetPoint" />
            <Array as="points">
              <mxPoint x="960" y="672.5" />
              <mxPoint x="960" y="872.5" />
            </Array>
          </mxGeometry>
        </mxCell>
        <mxCell id="dYhZ1xurs8YsVmNAA7L5-3" style="edgeStyle=orthogonalEdgeStyle;rounded=0;orthogonalLoop=1;jettySize=auto;html=1;" edge="1" parent="1" source="dYhZ1xurs8YsVmNAA7L5-5">
          <mxGeometry relative="1" as="geometry">
            <mxPoint x="1220" y="672.5" as="targetPoint" />
          </mxGeometry>
        </mxCell>
        <mxCell id="dYhZ1xurs8YsVmNAA7L5-4" style="edgeStyle=orthogonalEdgeStyle;rounded=0;orthogonalLoop=1;jettySize=auto;html=1;entryX=0.5;entryY=1;entryDx=0;entryDy=0;" edge="1" parent="1" source="dYhZ1xurs8YsVmNAA7L5-5" target="dYhZ1xurs8YsVmNAA7L5-11">
          <mxGeometry relative="1" as="geometry" />
        </mxCell>
        <mxCell id="dYhZ1xurs8YsVmNAA7L5-5" value="Home Page" style="rounded=0;whiteSpace=wrap;html=1;fillColor=#FFFFB3;strokeColor=#36393d;" vertex="1" parent="1">
          <mxGeometry x="1000" y="642.5" width="120" height="60" as="geometry" />
        </mxCell>
        <mxCell id="dYhZ1xurs8YsVmNAA7L5-6" value="" style="edgeStyle=orthogonalEdgeStyle;rounded=0;orthogonalLoop=1;jettySize=auto;html=1;" edge="1" parent="1" source="dYhZ1xurs8YsVmNAA7L5-7" target="dYhZ1xurs8YsVmNAA7L5-9">
          <mxGeometry relative="1" as="geometry" />
        </mxCell>
        <mxCell id="dYhZ1xurs8YsVmNAA7L5-7" value="Brand" style="rounded=0;whiteSpace=wrap;html=1;fillColor=#dae8fc;strokeColor=#6c8ebf;" vertex="1" parent="1">
          <mxGeometry x="1000" y="742.5" width="120" height="60" as="geometry" />
        </mxCell>
        <mxCell id="dYhZ1xurs8YsVmNAA7L5-8" style="edgeStyle=orthogonalEdgeStyle;rounded=0;orthogonalLoop=1;jettySize=auto;html=1;entryX=0;entryY=0.5;entryDx=0;entryDy=0;" edge="1" parent="1" source="dYhZ1xurs8YsVmNAA7L5-9" target="dYhZ1xurs8YsVmNAA7L5-12">
          <mxGeometry relative="1" as="geometry">
            <mxPoint x="1210" y="902.5" as="targetPoint" />
          </mxGeometry>
        </mxCell>
        <mxCell id="dYhZ1xurs8YsVmNAA7L5-9" value="Product" style="rounded=0;whiteSpace=wrap;html=1;fillColor=#dae8fc;strokeColor=#6c8ebf;" vertex="1" parent="1">
          <mxGeometry x="1000" y="842.5" width="120" height="60" as="geometry" />
        </mxCell>
        <mxCell id="dYhZ1xurs8YsVmNAA7L5-10" value="" style="rounded=0;whiteSpace=wrap;html=1;" vertex="1" parent="1">
          <mxGeometry x="1220" y="642.5" width="120" height="150" as="geometry" />
        </mxCell>
        <mxCell id="dYhZ1xurs8YsVmNAA7L5-11" value="Introduce" style="rounded=0;whiteSpace=wrap;html=1;fillColor=#dae8fc;strokeColor=#6c8ebf;" vertex="1" parent="1">
          <mxGeometry x="1000" y="507.5" width="120" height="60" as="geometry" />
        </mxCell>
        <mxCell id="dYhZ1xurs8YsVmNAA7L5-12" value="Product Detail" style="rounded=0;whiteSpace=wrap;html=1;fillColor=#dae8fc;strokeColor=#6c8ebf;" vertex="1" parent="1">
          <mxGeometry x="1220" y="842.5" width="120" height="60" as="geometry" />
        </mxCell>
        <mxCell id="dYhZ1xurs8YsVmNAA7L5-13" value="" style="endArrow=none;html=1;rounded=0;" edge="1" parent="1">
          <mxGeometry width="50" height="50" relative="1" as="geometry">
            <mxPoint x="960" y="942.5" as="sourcePoint" />
            <mxPoint x="960" y="872.5" as="targetPoint" />
          </mxGeometry>
        </mxCell>
        <mxCell id="dYhZ1xurs8YsVmNAA7L5-14" value="" style="endArrow=classic;html=1;rounded=0;entryX=0.5;entryY=1;entryDx=0;entryDy=0;" edge="1" parent="1" target="dYhZ1xurs8YsVmNAA7L5-12">
          <mxGeometry width="50" height="50" relative="1" as="geometry">
            <mxPoint x="960" y="942.5" as="sourcePoint" />
            <mxPoint x="1400" y="972.5" as="targetPoint" />
            <Array as="points">
              <mxPoint x="1280" y="942.5" />
            </Array>
          </mxGeometry>
        </mxCell>
        <mxCell id="dYhZ1xurs8YsVmNAA7L5-15" value="Forgot password" style="rounded=0;whiteSpace=wrap;html=1;" vertex="1" parent="1">
          <mxGeometry x="1220" y="512.5" width="120" height="60" as="geometry" />
        </mxCell>
        <mxCell id="dYhZ1xurs8YsVmNAA7L5-16" value="Change password" style="rounded=0;whiteSpace=wrap;html=1;" vertex="1" parent="1">
          <mxGeometry x="1220" y="410" width="120" height="60" as="geometry" />
        </mxCell>
        <mxCell id="dYhZ1xurs8YsVmNAA7L5-17" value="" style="endArrow=classic;html=1;rounded=0;exitX=0.5;exitY=0;exitDx=0;exitDy=0;entryX=0.5;entryY=1;entryDx=0;entryDy=0;" edge="1" parent="1" source="dYhZ1xurs8YsVmNAA7L5-10" target="dYhZ1xurs8YsVmNAA7L5-15">
          <mxGeometry width="50" height="50" relative="1" as="geometry">
            <mxPoint x="1240" y="592.5" as="sourcePoint" />
            <mxPoint x="1290" y="542.5" as="targetPoint" />
          </mxGeometry>
        </mxCell>
        <mxCell id="dYhZ1xurs8YsVmNAA7L5-18" value="" style="endArrow=classic;html=1;rounded=0;exitX=0.5;exitY=0;exitDx=0;exitDy=0;entryX=0.5;entryY=1;entryDx=0;entryDy=0;" edge="1" parent="1" source="dYhZ1xurs8YsVmNAA7L5-15" target="dYhZ1xurs8YsVmNAA7L5-16">
          <mxGeometry width="50" height="50" relative="1" as="geometry">
            <mxPoint x="1350" y="532.5" as="sourcePoint" />
            <mxPoint x="1400" y="482.5" as="targetPoint" />
          </mxGeometry>
        </mxCell>
        <mxCell id="dYhZ1xurs8YsVmNAA7L5-19" value="Login" style="rounded=0;whiteSpace=wrap;html=1;" vertex="1" parent="1">
          <mxGeometry x="1230" y="692.5" width="100" height="40" as="geometry" />
        </mxCell>
        <mxCell id="dYhZ1xurs8YsVmNAA7L5-20" value="Register" style="rounded=0;whiteSpace=wrap;html=1;fillColor=#dae8fc;strokeColor=#6c8ebf;" vertex="1" parent="1">
          <mxGeometry x="1230" y="742.5" width="100" height="40" as="geometry" />
        </mxCell>
        <mxCell id="dYhZ1xurs8YsVmNAA7L5-21" value="Authenticator" style="text;html=1;strokeColor=none;fillColor=none;align=center;verticalAlign=middle;whiteSpace=wrap;rounded=0;" vertex="1" parent="1">
          <mxGeometry x="1250" y="657.5" width="60" height="30" as="geometry" />
        </mxCell>
        <mxCell id="dYhZ1xurs8YsVmNAA7L5-22" value="Click &quot;giới thiệu&quot; navbar" style="text;html=1;strokeColor=none;fillColor=none;align=center;verticalAlign=middle;whiteSpace=wrap;rounded=0;" vertex="1" parent="1">
          <mxGeometry x="940" y="597.5" width="120" height="30" as="geometry" />
        </mxCell>
        <mxCell id="dYhZ1xurs8YsVmNAA7L5-23" value="Click &quot;thương hiệu&quot; navbar" style="text;html=1;strokeColor=none;fillColor=none;align=center;verticalAlign=middle;whiteSpace=wrap;rounded=0;" vertex="1" parent="1">
          <mxGeometry x="1060" y="712.5" width="100" height="30" as="geometry" />
        </mxCell>
        <mxCell id="dYhZ1xurs8YsVmNAA7L5-24" value="click brand link" style="text;html=1;strokeColor=none;fillColor=none;align=center;verticalAlign=middle;whiteSpace=wrap;rounded=0;" vertex="1" parent="1">
          <mxGeometry x="1060" y="802.5" width="70" height="30" as="geometry" />
        </mxCell>
        <mxCell id="dYhZ1xurs8YsVmNAA7L5-25" value="Click product element" style="text;html=1;strokeColor=none;fillColor=none;align=center;verticalAlign=middle;whiteSpace=wrap;rounded=0;rotation=-90;" vertex="1" parent="1">
          <mxGeometry x="880" y="857.5" width="120" height="30" as="geometry" />
        </mxCell>
        <mxCell id="dYhZ1xurs8YsVmNAA7L5-26" value="Click product&#39;s image" style="text;html=1;strokeColor=none;fillColor=none;align=center;verticalAlign=middle;whiteSpace=wrap;rounded=0;" vertex="1" parent="1">
          <mxGeometry x="1070" y="942.5" width="120" height="30" as="geometry" />
        </mxCell>
        <mxCell id="dYhZ1xurs8YsVmNAA7L5-27" value="Select a product" style="text;html=1;strokeColor=none;fillColor=none;align=center;verticalAlign=middle;whiteSpace=wrap;rounded=0;" vertex="1" parent="1">
          <mxGeometry x="1120" y="847.5" width="100" height="30" as="geometry" />
        </mxCell>
        <mxCell id="dYhZ1xurs8YsVmNAA7L5-28" value="Click &quot;user&quot; icon" style="text;html=1;strokeColor=none;fillColor=none;align=center;verticalAlign=middle;whiteSpace=wrap;rounded=0;" vertex="1" parent="1">
          <mxGeometry x="1120" y="642.5" width="90" height="30" as="geometry" />
        </mxCell>
        <mxCell id="dYhZ1xurs8YsVmNAA7L5-29" value="Click &quot;Quên mật khẩu&quot;" style="text;html=1;strokeColor=none;fillColor=none;align=center;verticalAlign=middle;whiteSpace=wrap;rounded=0;" vertex="1" parent="1">
          <mxGeometry x="1160" y="597.5" width="120" height="30" as="geometry" />
        </mxCell>
        <mxCell id="dYhZ1xurs8YsVmNAA7L5-30" value="Verified" style="text;html=1;strokeColor=none;fillColor=none;align=center;verticalAlign=middle;whiteSpace=wrap;rounded=0;" vertex="1" parent="1">
          <mxGeometry x="1220" y="482.5" width="60" height="30" as="geometry" />
        </mxCell>
        <mxCell id="dYhZ1xurs8YsVmNAA7L5-33" value="Import Detail" style="rounded=0;whiteSpace=wrap;html=1;" vertex="1" parent="1">
          <mxGeometry x="1790" y="612.5" width="130" height="60" as="geometry" />
        </mxCell>
        <mxCell id="dYhZ1xurs8YsVmNAA7L5-36" value="click &quot;Import detail&quot; button" style="endArrow=classic;html=1;rounded=0;entryX=0.5;entryY=0;entryDx=0;entryDy=0;exitX=0.529;exitY=0.998;exitDx=0;exitDy=0;exitPerimeter=0;" edge="1" parent="1" source="MCsUvH6jt3mRJvjkBpip-112" target="dYhZ1xurs8YsVmNAA7L5-33">
          <mxGeometry width="50" height="50" relative="1" as="geometry">
            <mxPoint x="1870" y="600" as="sourcePoint" />
            <mxPoint x="1920" y="550" as="targetPoint" />
          </mxGeometry>
        </mxCell>
      </root>
    </mxGraphModel>
  </diagram>
</mxfile>
